<?xml version="1.0" encoding="utf-8"?>
<!-- Generator: Adobe Illustrator 24.3.0, SVG Export Plug-In . SVG Version: 6.00 Build 0)  -->
<svg version="1.1" id="Layer_1" xmlns="http://www.w3.org/2000/svg" xmlns:xlink="http://www.w3.org/1999/xlink" x="0px" y="0px"
	 viewBox="0 0 512 512" style="enable-background:new 0 0 512 512;" xml:space="preserve">
<style type="text/css">
	.st0{clip-path:url(#SVGID_2_);fill:#FFFFFF;}
	.st1{clip-path:url(#SVGID_4_);fill:#666A6F;}
	.st2{clip-path:url(#SVGID_6_);fill:#666A6F;}
	.st3{clip-path:url(#SVGID_8_);fill:#666A6F;}
	.st4{clip-path:url(#SVGID_10_);fill:#666A6F;}
	.st5{clip-path:url(#SVGID_12_);fill:#666A6F;}
	.st6{clip-path:url(#SVGID_14_);fill:#666A6F;}
	.st7{clip-path:url(#SVGID_16_);fill:#666A6F;}
	.st8{clip-path:url(#SVGID_18_);fill:#0491D2;}
	.st9{clip-path:url(#SVGID_20_);fill:#FFFFFF;}
	.st10{clip-path:url(#SVGID_22_);fill:#FFFFFF;}
</style>
<g id="XMLID_1_">
	<g id="XMLID_2_">
		<g>
			<defs>
				<rect id="SVGID_1_" y="61.6" width="512" height="388.7"/>
			</defs>
			<clipPath id="SVGID_2_">
				<use xlink:href="#SVGID_1_"  style="overflow:visible;"/>
			</clipPath>
			<rect id="XMLID_4_" y="61.6" class="st0" width="512" height="388.7"/>
		</g>
		<g>
			<defs>
				<rect id="SVGID_3_" y="61.6" width="512" height="388.7"/>
			</defs>
			<clipPath id="SVGID_4_">
				<use xlink:href="#SVGID_3_"  style="overflow:visible;"/>
			</clipPath>
			<path id="XMLID_5_" class="st1" d="M56.67,415.51c-15.99,0-27.07-9.26-27.07-22.44c0-13.19,11.08-22.44,27.07-22.44
				c4.91,0,9.54,0.84,13.61,2.67l1.12,0.56l-20.62,12.91c-1.82,1.12-3.09,2.81-3.51,4.91c-0.42,1.96,0,4.07,1.12,5.75
				c2.38,3.65,7.43,4.63,11.22,2.24c0,0,37.03-23,38.15-23.71c-7.86-12.06-23.29-19.5-40.82-19.5c-25.81,0-46.01,16.13-46.01,36.61
				s20.2,36.61,46.01,36.61c25.39,0,45.45-15.71,46.01-35.77c-1.26,0-17.81,0-18.94,0C83.18,406.67,72.24,415.51,56.67,415.51"/>
		</g>
		<g>
			<defs>
				<rect id="SVGID_5_" y="61.6" width="512" height="388.7"/>
			</defs>
			<clipPath id="SVGID_6_">
				<use xlink:href="#SVGID_5_"  style="overflow:visible;"/>
			</clipPath>
			<path id="XMLID_6_" class="st2" d="M266.94,385.35h-17.67c0-1.68-0.84-3.09-2.38-3.93c-2.67-1.54-8.14-2.24-16.27-2.24
				s-13.61,0.7-16.27,2.24c-1.54,0.84-2.38,2.1-2.38,3.79c0,2.24,1.12,3.79,3.37,4.49c2.24,0.7,7.57,1.26,16.13,1.68
				c10.38,0.42,17.96,1.4,23,2.95c8.56,2.81,12.76,7.72,12.76,14.87c0,11.92-12.2,17.81-36.47,17.81s-36.47-5.89-36.47-17.81h17.67
				c0,1.82,0.84,3.09,2.38,3.93c2.67,1.54,8.14,2.24,16.27,2.24s13.61-0.84,16.27-2.24c1.54-0.84,2.38-2.1,2.38-3.93
				c0-2.24-0.98-3.65-3.09-4.35c-2.38-0.84-7.72-1.4-16.13-1.82c-10.38-0.42-18.1-1.4-23-2.95c-8.7-2.81-12.91-7.72-12.91-14.73
				c0-11.78,12.2-17.67,36.47-17.67C254.88,367.68,266.94,373.57,266.94,385.35"/>
		</g>
		<g>
			<defs>
				<rect id="SVGID_7_" y="61.6" width="512" height="388.7"/>
			</defs>
			<clipPath id="SVGID_8_">
				<use xlink:href="#SVGID_7_"  style="overflow:visible;"/>
			</clipPath>
			<path id="XMLID_7_" class="st3" d="M278.58,367.68h17.81v59.34h-17.81V367.68z M296.4,355.9h-17.81v-11.64h17.81"/>
		</g>
		<g>
			<defs>
				<rect id="SVGID_9_" y="61.6" width="512" height="388.7"/>
			</defs>
			<clipPath id="SVGID_10_">
				<use xlink:href="#SVGID_9_"  style="overflow:visible;"/>
			</clipPath>
			<path id="XMLID_10_" class="st4" d="M355.88,427.01c-45.31,2.38-45.31-2.95-45.31-21.46v-61.16h17.67v61.16
				c0,3.09-0.98,8.14,2.1,9.96c4.35,2.38,14.45,1.26,25.39,1.26"/>
		</g>
		<g>
			<defs>
				<rect id="SVGID_11_" y="61.6" width="512" height="388.7"/>
			</defs>
			<clipPath id="SVGID_12_">
				<use xlink:href="#SVGID_11_"  style="overflow:visible;"/>
			</clipPath>
			<path id="XMLID_11_" class="st5" d="M427.7,400.5c0-6.17-1.54-10.66-4.63-13.33c-3.79-3.37-10.38-5.19-19.78-5.19
				c-9.4,0-15.99,1.68-19.78,5.19c-3.09,2.81-4.63,7.29-4.63,13.33c0,6.17,1.54,10.66,4.63,13.33c3.79,3.37,10.38,5.05,19.78,5.05
				c9.4,0,15.99-1.68,19.78-5.05C426.15,411.16,427.7,406.67,427.7,400.5z M445.37,400.5c0,20.2-14.03,30.3-42.08,30.3
				c-28.2,0-42.22-10.1-42.22-30.3c0-20.2,14.03-30.44,42.22-30.44C431.34,370.2,445.37,380.3,445.37,400.5"/>
		</g>
		<g>
			<defs>
				<rect id="SVGID_13_" y="61.6" width="512" height="388.7"/>
			</defs>
			<clipPath id="SVGID_14_">
				<use xlink:href="#SVGID_13_"  style="overflow:visible;"/>
			</clipPath>
			<path id="XMLID_14_" class="st6" d="M501.06,379.32c-10.94,0-18.66,0.98-22.86,3.09c-3.09,1.54-4.63,3.79-4.63,6.87v37.73h-17.67
				v-37.73c0-14.45,15.01-21.6,45.17-21.6"/>
		</g>
		<g>
			<defs>
				<rect id="SVGID_15_" y="61.6" width="512" height="388.7"/>
			</defs>
			<clipPath id="SVGID_16_">
				<use xlink:href="#SVGID_15_"  style="overflow:visible;"/>
			</clipPath>
			<path id="XMLID_15_" class="st7" d="M183.62,385.35h-17.67c0-1.68-0.7-3.09-2.38-3.93c-2.67-1.54-8.14-2.24-16.41-2.24
				c-8.14,0-13.61,0.7-16.27,2.24c-1.54,0.84-2.38,2.1-2.38,3.79c0,2.24,1.12,3.79,3.37,4.49c2.24,0.7,7.57,1.26,16.13,1.68
				c10.38,0.42,17.96,1.4,23,2.95c8.56,2.81,12.76,7.72,12.76,14.87c0,11.92-12.2,17.81-36.47,17.81s-36.47-5.89-36.47-17.81h17.53
				c0,1.82,0.84,3.09,2.38,3.93c2.67,1.54,8.14,2.24,16.27,2.24s13.61-0.84,16.41-2.24c1.54-0.84,2.38-2.1,2.38-3.93
				c0-2.24-0.98-3.65-3.09-4.35c-2.38-0.84-7.72-1.4-16.13-1.82c-10.38-0.42-18.1-1.4-23-2.95c-8.56-2.81-12.91-7.72-12.91-14.73
				c0-11.78,12.2-17.67,36.47-17.67C171.41,367.68,183.62,373.57,183.62,385.35"/>
		</g>
		<g>
			<defs>
				<rect id="SVGID_17_" y="61.6" width="512" height="388.7"/>
			</defs>
			<clipPath id="SVGID_18_">
				<use xlink:href="#SVGID_17_"  style="overflow:visible;"/>
			</clipPath>
			<rect id="XMLID_16_" x="13.61" y="73.1" class="st8" width="486.33" height="245.9"/>
		</g>
		<g>
			<defs>
				<rect id="SVGID_19_" y="61.6" width="512" height="388.7"/>
			</defs>
			<clipPath id="SVGID_20_">
				<use xlink:href="#SVGID_19_"  style="overflow:visible;"/>
			</clipPath>
			<path id="XMLID_17_" class="st9" d="M241.69,273.41c-85.57-18.52-107.73-99.88-107.73-99.88l0.56-0.84
				c0,0,49.8-80.94,152.9-59.62c0,0,78.13,14.31,106.89,100.3C394.31,213.38,343.11,295.3,241.69,273.41z M271.15,98.91
				c-118.67,2.67-152.9,103.38-152.9,103.38l-0.28,0.98c0,0,45.03,83.04,143.64,81.5c116.99-1.68,152.48-103.8,152.48-103.8
				C360.64,94.71,271.15,98.91,271.15,98.91"/>
		</g>
		<g>
			<defs>
				<rect id="SVGID_21_" y="61.6" width="512" height="388.7"/>
			</defs>
			<clipPath id="SVGID_22_">
				<use xlink:href="#SVGID_21_"  style="overflow:visible;"/>
			</clipPath>
			<path id="XMLID_20_" class="st10" d="M265.96,229.23c-24.83,0-42.08-14.31-42.08-34.79s17.25-34.93,42.08-34.93
				c7.72,0,14.73,1.4,21.18,4.21l0.98,0.42l-31.84,19.92c-2.95,1.82-4.91,4.63-5.75,8c-0.7,3.23,0,6.59,1.82,9.4
				c3.93,5.89,12.06,7.57,18.1,3.79l60.18-37.45c-12.2-19.22-37.03-31.28-64.67-31.28c-40.82,0-72.66,25.39-72.66,57.93
				c0,32.4,31.84,57.93,72.66,57.93c40.4,0,72.1-24.97,72.66-57.09c-1.12,0-29.6,0-30.58,0
				C307.62,215.2,290.37,229.23,265.96,229.23"/>
		</g>
	</g>
</g>
</svg>
