<?xml version="1.0" encoding="UTF-8"?>
<!DOCTYPE svg PUBLIC "-//W3C//DTD SVG 1.1//EN" "http://www.w3.org/Graphics/SVG/1.1/DTD/svg11.dtd">
<!-- Creator: CorelDRAW X5 -->
<svg xmlns="http://www.w3.org/2000/svg" xml:space="preserve" style="shape-rendering:geometricPrecision; text-rendering:geometricPrecision; image-rendering:optimizeQuality; fill-rule:evenodd; clip-rule:evenodd"
viewBox="0 0 2636 1575"
 xmlns:xlink="http://www.w3.org/1999/xlink">
 <defs>
  <style type="text/css">
   <![CDATA[
    .fil0 {fill:#4DA6B1;fill-rule:nonzero}
    .fil1 {fill:#878889;fill-rule:nonzero}
   ]]>
  </style>
 </defs>
 <g id="Layer_x0020_1">
  <metadata id="CorelCorpID_0Corel-Layer"/>
  <path class="fil0" d="M520 1198c0,37 7,63 22,78 15,15 40,22 75,22l28 0 0 37 -28 0c-49,0 -85,-10 -107,-31 -22,-21 -33,-53 -33,-97l0 -413 -107 0 0 -37 107 0 0 -180 43 0 0 180 126 0 0 37 -126 0 0 403z"/>
  <path class="fil0" d="M1185 1047c0,-79 -20,-143 -61,-192 -41,-49 -95,-74 -161,-74 -67,0 -120,25 -161,74 -41,49 -61,113 -61,192 0,79 20,143 61,192 41,49 95,74 161,74 67,0 120,-25 161,-74 41,-49 61,-113 61,-192zm43 0c0,92 -24,165 -72,220 -48,55 -113,83 -194,83 -80,0 -144,-28 -192,-83 -48,-56 -72,-129 -72,-219 0,-92 24,-165 72,-220 48,-55 113,-83 194,-83 80,0 144,28 192,83 48,56 72,129 72,219z"/>
  <path class="fil0" d="M1380 1045c0,179 72,268 216,268 65,0 117,-24 155,-71 38,-48 57,-112 57,-193 0,-80 -20,-145 -59,-194 -39,-49 -92,-73 -158,-73 -67,0 -119,24 -157,71 -38,47 -56,111 -56,193zm0 163l0 333 -43 0 0 -783 43 0 0 139c14,-46 41,-84 80,-111 39,-28 83,-42 133,-42 78,0 141,27 188,82 47,55 71,128 71,219 0,95 -22,170 -67,223 -45,54 -107,80 -188,80 -54,0 -100,-11 -137,-34 -37,-23 -64,-59 -80,-108z"/>
  <polygon class="fil0" points="1962,1335 2005,1335 2005,758 1962,758 "/>
  <polygon class="fil0" points="1962,649 2005,649 2005,533 1962,533 "/>
  <path class="fil0" d="M2525 1108l0 -104c-17,28 -71,43 -160,43 -73,0 -126,12 -159,35 -33,23 -50,59 -50,107 0,37 13,67 39,91 26,24 63,36 109,36 70,0 125,-21 165,-62 37,-38 55,-87 55,-145zm0 109c-20,45 -49,79 -87,101 -38,22 -83,34 -135,34 -62,0 -109,-14 -141,-42 -32,-28 -48,-68 -48,-120 0,-119 83,-179 250,-179 43,0 75,-3 95,-10 44,-14 66,-43 66,-88 0,-42 -15,-75 -45,-98 -30,-23 -69,-35 -116,-35 -56,0 -100,15 -130,44 -31,30 -46,66 -46,110l-43 0c0,-57 18,-102 53,-136 39,-37 96,-55 170,-55 134,0 201,56 201,167l0 342c0,30 13,45 38,45l30 -3 0 36 -32 4c-53,0 -79,-24 -79,-71l0 -47z"/>
  <path class="fil0" d="M520 1198c0,37 7,63 22,78 15,15 40,22 75,22l28 0 0 37 -28 0c-49,0 -85,-10 -107,-31 -22,-21 -33,-53 -33,-97l0 -413 -107 0 0 -37 107 0 0 -180 43 0 0 180 126 0 0 37 -126 0 0 403z"/>
  <path class="fil0" d="M1185 1047c0,-79 -20,-143 -61,-192 -41,-49 -95,-74 -161,-74 -67,0 -120,25 -161,74 -41,49 -61,113 -61,192 0,79 20,143 61,192 41,49 95,74 161,74 67,0 120,-25 161,-74 41,-49 61,-113 61,-192zm43 0c0,92 -24,165 -72,220 -48,55 -113,83 -194,83 -80,0 -144,-28 -192,-83 -48,-56 -72,-129 -72,-219 0,-92 24,-165 72,-220 48,-55 113,-83 194,-83 80,0 144,28 192,83 48,56 72,129 72,219z"/>
  <path class="fil0" d="M1380 1045c0,179 72,268 216,268 65,0 117,-24 155,-71 38,-48 57,-112 57,-193 0,-80 -20,-145 -59,-194 -39,-49 -92,-73 -158,-73 -67,0 -119,24 -157,71 -38,47 -56,111 -56,193zm0 163l0 333 -43 0 0 -783 43 0 0 139c14,-46 41,-84 80,-111 39,-28 83,-42 133,-42 78,0 141,27 188,82 47,55 71,128 71,219 0,95 -22,170 -67,223 -45,54 -107,80 -188,80 -54,0 -100,-11 -137,-34 -37,-23 -64,-59 -80,-108z"/>
  <polygon class="fil0" points="1962,1335 2005,1335 2005,758 1962,758 "/>
  <polygon class="fil0" points="1962,649 2005,649 2005,533 1962,533 "/>
  <path class="fil0" d="M2525 1108l0 -104c-17,28 -71,43 -160,43 -73,0 -126,12 -159,35 -33,23 -50,59 -50,107 0,37 13,67 39,91 26,24 63,36 109,36 70,0 125,-21 165,-62 37,-38 55,-87 55,-145zm0 109c-20,45 -49,79 -87,101 -38,22 -83,34 -135,34 -62,0 -109,-14 -141,-42 -32,-28 -48,-68 -48,-120 0,-119 83,-179 250,-179 43,0 75,-3 95,-10 44,-14 66,-43 66,-88 0,-42 -15,-75 -45,-98 -30,-23 -69,-35 -116,-35 -56,0 -100,15 -130,44 -31,30 -46,66 -46,110l-43 0c0,-57 18,-102 53,-136 39,-37 96,-55 170,-55 134,0 201,56 201,167l0 342c0,30 13,45 38,45l30 -3 0 36 -32 4c-53,0 -79,-24 -79,-71l0 -47z"/>
  <path class="fil0" d="M43 271l424 0c0,-67 -20,-122 -61,-167 -41,-45 -90,-67 -149,-67 -61,0 -113,25 -154,75 -34,42 -54,95 -60,158zm464 124c-12,68 -40,120 -83,156 -43,36 -99,55 -167,55 -82,0 -145,-27 -190,-80 -45,-54 -67,-128 -67,-223 0,-89 24,-162 71,-218 48,-56 110,-84 187,-84 76,0 138,28 185,83 45,53 67,120 67,200l0 25 -469 0c0,77 19,140 57,188 38,48 91,72 158,72 55,0 101,-16 136,-48 35,-32 58,-74 67,-126l46 0z"/>
  <path class="fil0" d="M1125 271l424 0c0,-67 -20,-122 -61,-167 -41,-45 -90,-67 -149,-67 -61,0 -113,25 -154,75 -34,42 -54,95 -60,158zm464 124c-12,68 -40,120 -83,156 -43,36 -99,55 -167,55 -82,0 -145,-27 -190,-80 -45,-54 -67,-128 -67,-223 0,-89 24,-162 71,-218 48,-56 110,-84 187,-84 76,0 138,28 185,83 45,53 67,120 67,200l0 25 -469 0c0,77 19,140 57,188 38,48 91,72 158,72 55,0 100,-16 136,-48 35,-32 58,-74 67,-126l46 0z"/>
  <path class="fil0" d="M43 271l424 0c0,-67 -20,-122 -61,-167 -41,-45 -90,-67 -149,-67 -61,0 -113,25 -154,75 -34,42 -54,95 -60,158zm464 124c-12,68 -40,120 -83,156 -43,36 -99,55 -167,55 -82,0 -145,-27 -190,-80 -45,-54 -67,-128 -67,-223 0,-89 24,-162 71,-218 48,-56 110,-84 187,-84 76,0 138,28 185,83 45,53 67,120 67,200l0 25 -469 0c0,77 19,140 57,188 38,48 91,72 158,72 55,0 101,-16 136,-48 35,-32 58,-74 67,-126l46 0z"/>
  <path class="fil0" d="M466 270l0 -1 0 0 0 1zm-423 -1l0 0 0 1 0 -1z"/>
  <path class="fil0" d="M43 269l0 0c0,-5 1,-9 2,-13l-2 0 0 13zm424 0l0 0 0 -13 0 0c0,4 0,9 0,13z"/>
  <path class="fil0" d="M43 256l2 0c1,-5 1,-9 2,-13l-4 0 0 13zm423 0l0 0 0 -13 -1 0c0,4 1,9 1,13z"/>
  <path class="fil0" d="M43 243l4 0c1,-5 2,-9 3,-13l-6 0 0 13zm422 0l1 0 0 -13 -3 0c1,4 1,9 2,13z"/>
  <path class="fil0" d="M43 229l6 0c1,-5 2,-9 3,-13l-9 0 0 13zm421 0l3 0 0 -13 -5 0c1,4 2,9 2,13z"/>
  <path class="fil0" d="M43 216l9 0c1,-5 2,-9 4,-13l-13 0 0 13zm418 0l5 0 0 -13 -8 0c1,4 2,9 3,13z"/>
  <path class="fil0" d="M43 202l13 0c1,-5 3,-9 4,-13l-17 0 0 13zm415 0l8 0 0 -13 -12 0c1,4 3,9 4,13z"/>
  <path class="fil0" d="M43 189l17 0c2,-5 3,-9 5,-13l-23 0 0 13zm412 0l12 0 0 -13 -17 0c2,4 3,9 5,13z"/>
  <path class="fil0" d="M43 175l23 0c2,-5 4,-9 6,-13l-29 0 0 13zm407 0l17 0 0 -13 -23 0c2,4 4,9 6,13z"/>
  <path class="fil0" d="M43 162l29 0c2,-5 4,-9 7,-13l-36 0 0 13zm401 0l23 0 0 -13 -29 0c2,4 5,9 7,13z"/>
  <path class="fil0" d="M43 148l36 0c3,-5 5,-9 8,-13l-44 0 0 13zm394 0l29 0 0 -13 -37 0c3,4 6,9 8,13z"/>
  <path class="fil0" d="M43 135l44 0c3,-5 6,-9 9,-13l-51 0 -2 3 0 10zm386 0l37 0 0 -13 -47 0c3,4 6,9 9,13z"/>
  <path class="fil0" d="M45 121l51 0c2,-3 4,-6 7,-9 1,-2 3,-3 4,-5l-53 0c-3,4 -6,9 -9,13zm375 0l47 0 0 -8c-1,-2 -3,-4 -4,-6l-54 0c4,4 8,9 11,13z"/>
  <path class="fil0" d="M53 108l53 0c4,-5 8,-9 12,-13l-56 0c-3,4 -7,9 -10,13zm355 0l54 0c-3,-5 -6,-9 -10,-13l-57 0c3,3 6,6 9,10 1,1 2,3 3,4z"/>
  <path class="fil0" d="M63 94l56 0c5,-5 10,-9 15,-13l-59 0c-1,1 -2,2 -3,3 -3,3 -6,7 -8,10zm333 0l57 0c-3,-4 -6,-8 -9,-11l-2 -2 -61 0c5,4 10,9 15,13z"/>
  <path class="fil0" d="M74 81l59 0c6,-5 12,-9 18,-13l-65 0c-4,4 -9,9 -13,13zm307 0l61 0c-4,-5 -8,-9 -13,-13l-67 0c6,4 12,9 19,13z"/>
  <path class="fil0" d="M87 67l65 0c8,-5 16,-10 24,-13l-74 0c-5,4 -10,9 -15,13zm276 0l67 0c-5,-5 -10,-9 -15,-13l-77 0c9,4 17,8 25,13z"/>
  <path class="fil0" d="M101 54l74 0c14,-6 28,-11 43,-13l-100 0c-6,4 -12,9 -18,13zm236 0l77 0c-6,-5 -12,-9 -18,-13l-103 0c15,3 30,7 43,13z"/>
  <path class="fil0" d="M119 40l100 0c12,-2 25,-3 38,-3l-132 0c-2,1 -3,2 -5,3zm175 0l103 0c-2,-1 -3,-2 -5,-3l-136 0c13,0 26,1 38,3z"/>
  <path class="fil0" d="M253 606l8 0c31,0 60,-5 86,-13l-178 0c26,8 54,12 85,13z"/>
  <path class="fil0" d="M169 593l178 0c12,-4 23,-8 34,-13l-245 0c11,5 22,10 33,13z"/>
  <path class="fil0" d="M136 579l245 0c8,-4 16,-9 23,-13l-109 0c-12,2 -24,3 -37,3 -13,0 -25,-1 -37,-3l-109 0c7,5 15,9 23,13z"/>
  <path class="fil0" d="M112 566l109 0c-17,-3 -34,-7 -49,-13l-78 0c6,5 12,9 18,13zm182 0l109 0c6,-4 12,-9 18,-13l-79 0c-15,6 -31,11 -49,13z"/>
  <path class="fil0" d="M95 552l78 0c-9,-4 -18,-8 -26,-13l-67 0c5,5 10,9 15,13zm249 0l79 0 2 -2c4,-4 9,-8 13,-12l-68 0c-8,5 -17,10 -26,13z"/>
  <path class="fil0" d="M80 539l67 0c-6,-4 -13,-9 -19,-13l-60 0c4,5 8,9 12,13zm289 0l68 0c4,-4 8,-9 12,-13l-62 0c-6,5 -12,9 -18,13z"/>
  <path class="fil0" d="M68 526l60 0c-5,-4 -10,-9 -15,-13l-56 0c3,4 7,9 10,13l0 0zm320 0l62 0c4,-4 7,-9 11,-13l-58 0c-3,3 -6,6 -9,8 -2,2 -4,3 -6,5z"/>
  <path class="fil0" d="M57 512l56 0c-4,-4 -8,-9 -12,-13l-54 0c3,5 6,9 9,13zm345 0l58 0c3,-4 6,-9 9,-13l-55 0c-4,5 -8,9 -12,13z"/>
  <path class="fil0" d="M48 499l54 0 -2 -2c-3,-4 -6,-7 -8,-11l-51 0c3,5 5,9 8,13zm366 0l55 0c3,-4 5,-9 8,-13l-52 0c-3,5 -7,9 -10,13z"/>
  <path class="fil0" d="M40 485l51 0c-3,-4 -6,-9 -9,-13l-50 0c2,5 4,9 7,13zm384 0l52 0c2,-4 5,-9 7,-13l-50 0c-3,5 -6,9 -9,13z"/>
  <path class="fil0" d="M33 472l50 0c-3,-4 -5,-9 -8,-13l-48 0c2,5 4,9 6,13zm400 0l50 0c2,-4 4,-9 6,-13l-49 0c-2,5 -5,9 -7,13z"/>
  <path class="fil0" d="M27 458l48 0c-2,-4 -4,-9 -6,-13l-47 0c2,5 3,9 5,13zm413 0l49 0c2,-4 3,-9 5,-13l-48 0c-2,5 -4,9 -6,13z"/>
  <path class="fil0" d="M22 445l47 0c-2,-4 -4,-9 -6,-13l-46 0c1,5 3,9 4,13zm424 0l48 0c1,-4 3,-9 4,-13l-47 0c-2,5 -3,9 -5,13z"/>
  <path class="fil0" d="M18 431l46 0c-2,-4 -3,-9 -5,-13l-45 0c1,5 2,9 4,13zm434 0l47 0c1,-4 2,-9 4,-13l-46 0c-1,5 -3,9 -4,13z"/>
  <path class="fil0" d="M14 418l45 0c-1,-4 -3,-9 -4,-13l-44 0c1,5 2,9 3,13zm442 0l46 0c1,-4 2,-9 3,-13l-46 0c-1,5 -2,9 -3,13z"/>
  <path class="fil0" d="M10 404l44 0c-1,-4 -2,-9 -3,-13l-44 0c1,5 2,9 3,13zm448 0l46 0c1,-3 1,-7 2,-10l-46 0c-1,3 -1,7 -2,10z"/>
  <path class="fil0" d="M8 391l44 0c-1,-4 -2,-9 -3,-13l-43 0c1,5 1,9 2,13z"/>
  <path class="fil0" d="M5 377l43 0c-1,-4 -1,-9 -2,-13l-43 0c1,5 1,9 2,13z"/>
  <path class="fil0" d="M4 364l43 0c-1,-4 -1,-9 -2,-13l-43 0c0,5 1,9 1,13z"/>
  <path class="fil0" d="M2 350l43 0c0,-4 -1,-9 -1,-14l-43 0c0,5 1,9 1,14z"/>
  <path class="fil0" d="M1 337l43 0c0,-4 -1,-9 -1,-13l-43 0c0,5 0,9 1,13z"/>
  <path class="fil0" d="M0 323l43 0c0,-4 0,-9 0,-14l-43 0c0,5 0,9 0,14z"/>
  <path class="fil0" d="M0 310l43 0 0 -2 469 0 0 -11 -511 0c0,2 0,3 0,5 0,3 0,6 0,8z"/>
  <path class="fil0" d="M0 296l511 0 0 -14 -511 0c0,4 0,9 0,14z"/>
  <path class="fil0" d="M0 283l511 0 0 -4c0,-3 0,-6 0,-9l-45 0 0 1 -424 0 0 -1 -42 0c0,4 -1,9 -1,13z"/>
  <path class="fil0" d="M1 269l42 0c0,-5 1,-9 2,-13l-42 0c0,4 -1,9 -1,13zm465 0l45 0c0,-5 0,-9 -1,-13l-44 0c0,4 0,9 0,13z"/>
  <path class="fil0" d="M2 256l42 0c1,-5 1,-9 2,-13l-43 0c-1,4 -1,9 -2,13zm464 0l44 0c0,-5 -1,-9 -1,-13l-44 0c0,4 1,9 1,13z"/>
  <path class="fil0" d="M4 243l43 0c1,-5 2,-9 3,-13l-43 0c-1,4 -1,9 -2,13zm461 0l44 0c0,-5 -1,-9 -2,-13l-44 0c1,4 1,9 2,13z"/>
  <path class="fil0" d="M6 229l43 0c1,-5 2,-9 3,-13l-44 0c-1,4 -2,9 -3,13zm458 0l44 0c-1,-5 -1,-9 -2,-13l-44 0c1,4 2,9 2,13z"/>
  <path class="fil0" d="M8 216l44 0c1,-5 2,-9 4,-13l-44 0c-1,4 -2,9 -3,13zm453 0l44 0c-1,-5 -2,-9 -3,-13l-44 0c1,4 2,9 3,13z"/>
  <path class="fil0" d="M12 202l44 0c1,-5 3,-9 4,-13l-45 0c-1,4 -3,9 -4,13zm447 0l44 0c-1,-5 -2,-9 -3,-13l-45 0c1,4 3,9 4,13z"/>
  <path class="fil0" d="M15 189l45 0c2,-5 3,-9 5,-13l-46 0c-2,4 -3,9 -4,13zm439 0l45 0c-1,-5 -3,-9 -4,-13l-46 0c2,4 3,9 5,13z"/>
  <path class="fil0" d="M20 175l46 0c2,-5 4,-9 6,-13l-47 0c-2,4 -3,9 -5,13zm430 0l46 0c-1,-5 -3,-9 -5,-13l-47 0c2,4 4,9 6,13z"/>
  <path class="fil0" d="M25 162l47 0c2,-5 4,-9 7,-13l-48 0c-2,4 -4,9 -6,13zm419 0l47 0c-2,-5 -4,-9 -6,-13l-48 0c2,4 5,9 7,13z"/>
  <path class="fil0" d="M30 148l48 0c3,-5 5,-9 8,-13l-49 0c-2,4 -5,9 -7,13zm407 0l48 0c-2,-5 -4,-9 -6,-13l-49 0c3,4 6,9 8,13z"/>
  <path class="fil0" d="M37 135l49 0c3,-5 6,-9 9,-13l-51 0c-3,4 -5,9 -8,13zm392 0l49 0c-2,-5 -5,-9 -7,-13l-51 0c3,4 6,9 9,13z"/>
  <path class="fil0" d="M45 121l51 0c2,-3 4,-6 7,-9 1,-2 3,-3 4,-5l-53 0c-3,4 -6,9 -9,13zm375 0l51 0c-3,-5 -5,-9 -8,-13l-54 0c4,4 8,9 11,13z"/>
  <path class="fil0" d="M53 108l53 0c4,-5 8,-9 12,-13l-56 0c-3,4 -7,9 -10,13zm355 0l54 0c-3,-5 -6,-9 -10,-13l-57 0c3,3 6,6 9,10 1,1 2,3 3,4z"/>
  <path class="fil0" d="M63 94l56 0c5,-5 10,-9 15,-13l-59 0c-1,1 -2,2 -3,3 -3,3 -6,7 -8,10zm333 0l57 0c-3,-4 -6,-8 -9,-11l-2 -2 -61 0c5,4 10,9 15,13z"/>
  <path class="fil0" d="M74 81l59 0c6,-5 12,-9 18,-13l-65 0c-4,4 -9,9 -13,13zm307 0l61 0c-4,-5 -8,-9 -13,-13l-67 0c6,4 12,9 19,13z"/>
  <path class="fil0" d="M87 67l65 0c8,-5 16,-10 24,-13l-74 0c-5,4 -10,9 -15,13zm276 0l67 0c-5,-5 -10,-9 -15,-13l-77 0c9,4 17,8 25,13z"/>
  <path class="fil0" d="M101 54l74 0c14,-6 28,-11 43,-13l-100 0c-6,4 -12,9 -18,13zm236 0l77 0c-6,-5 -12,-9 -18,-13l-103 0c15,3 30,7 43,13z"/>
  <path class="fil0" d="M119 40l100 0c12,-2 25,-3 38,-3 13,0 26,1 38,3l103 0c-7,-5 -15,-9 -22,-14l-233 0c-8,4 -15,9 -22,14z"/>
  <path class="fil0" d="M142 27l233 0c-10,-5 -20,-10 -31,-13l-171 0c-11,4 -21,8 -31,13z"/>
  <path class="fil0" d="M173 13l171 0c-26,-9 -54,-13 -85,-13 -31,0 -60,5 -86,13z"/>
  <path class="fil0" d="M1002 14l47 0 -269 690c-15,36 -44,61 -64,74 -20,13 -53,18 -101,18l-246 0 0 -37 245 0c30,-2 60,-4 80,-15 21,-11 37,-30 48,-56l37 -99 -242 -574 50 0 215 528 198 -528z"/>
  <path class="fil0" d="M370 795l246 0c42,0 73,-4 93,-13l-339 0 0 13z"/>
  <path class="fil0" d="M370 782l339 0c3,-1 5,-3 8,-4 4,-3 8,-6 13,-9l-360 0 0 13z"/>
  <path class="fil0" d="M370 768l360 0c5,-4 10,-8 15,-13l-91 0c-12,2 -25,2 -38,3l-245 0 0 10z"/>
  <path class="fil0" d="M654 755l91 0c4,-4 8,-9 12,-13l-58 0c-1,1 -3,2 -4,2 -12,6 -26,9 -42,11z"/>
  <path class="fil0" d="M700 741l58 0c3,-4 7,-9 10,-13l-50 0c-5,5 -11,10 -17,13z"/>
  <path class="fil0" d="M717 728l50 0c3,-4 6,-9 8,-13l-47 0c-4,5 -7,9 -11,13z"/>
  <path class="fil0" d="M729 714l47 0c2,-3 4,-7 5,-11l1 -3 -45 0c-3,5 -5,9 -8,13z"/>
  <path class="fil0" d="M737 701l45 0 5 -13 -43 0c-2,5 -4,9 -6,13z"/>
  <polygon class="fil0" points="744,687 787,687 792,674 749,674 744,687 "/>
  <polygon class="fil0" points="749,674 792,674 798,660 754,660 "/>
  <polygon class="fil0" points="754,660 798,660 803,647 759,647 "/>
  <polygon class="fil0" points="759,647 803,647 808,633 764,633 "/>
  <polygon class="fil0" points="764,633 808,633 813,620 769,620 "/>
  <polygon class="fil0" points="769,620 813,620 819,606 774,606 "/>
  <polygon class="fil0" points="774,606 819,606 824,593 779,593 "/>
  <polygon class="fil0" points="779,593 824,593 829,579 777,579 781,588 "/>
  <polygon class="fil0" points="777,579 829,579 834,566 772,566 "/>
  <polygon class="fil0" points="772,566 834,566 840,552 766,552 "/>
  <polygon class="fil0" points="766,552 840,552 845,539 805,539 804,541 803,539 760,539 "/>
  <path class="fil0" d="M760 539l43 0 -5 -13 -43 0 6 13zm45 0l40 0 5 -13 -40 0 -5 13z"/>
  <path class="fil0" d="M755 526l43 0 -5 -13 -43 0 6 13zm55 0l40 0 5 -13 -40 0 -5 13z"/>
  <path class="fil0" d="M749 512l43 0 -5 -13 -43 0 6 13zm66 0l40 0 5 -13 -40 0 -5 13z"/>
  <path class="fil0" d="M743 499l43 0 -5 -13 -43 0 6 13zm77 0l40 0 5 -13 -41 0 -5 13z"/>
  <path class="fil0" d="M738 485l43 0 -5 -13 -44 0 6 13zm88 0l41 0 5 -13 -41 0 -5 13z"/>
  <path class="fil0" d="M732 472l44 0 -5 -13 -44 0 6 13zm98 0l41 0 5 -13 -41 0 -5 13z"/>
  <path class="fil0" d="M726 458l44 0 -5 -13 -44 0 6 13zm109 0l41 0 5 -13 -41 0 -5 13z"/>
  <path class="fil0" d="M721 445l44 0 -5 -13 -44 0 6 13zm120 0l41 0 5 -13 -41 0 -5 13z"/>
  <path class="fil0" d="M715 431l44 0 -5 -13 -44 0 6 13zm130 0l41 0 5 -13 -42 0 -5 13z"/>
  <path class="fil0" d="M709 418l44 0 -5 -13 -45 0 6 13zm141 0l42 0 5 -13 -42 0 -5 13z"/>
  <path class="fil0" d="M704 404l45 0 -5 -13 -45 0 6 13zm152 0l42 0 5 -13 -42 0 -5 13z"/>
  <path class="fil0" d="M698 391l45 0 -5 -13 -45 0 6 13zm163 0l42 0 5 -13 -42 0 -5 13z"/>
  <path class="fil0" d="M692 377l45 0 -5 -13 -45 0 6 13zm173 0l42 0 5 -13 -42 0 -5 13z"/>
  <path class="fil0" d="M687 364l45 0 -5 -13 -45 0 6 13zm184 0l42 0 5 -13 -42 0 -5 13z"/>
  <path class="fil0" d="M681 350l45 0 -5 -14 -45 0 6 14zm195 0l42 0 5 -14 -43 0 -5 14z"/>
  <path class="fil0" d="M675 337l45 0 -5 -13 -46 0 6 13zm206 0l43 0 5 -13 -43 0 -5 13z"/>
  <path class="fil0" d="M670 323l46 0 -5 -14 -46 0 6 14zm216 0l43 0 5 -14 -43 0 -5 14z"/>
  <path class="fil0" d="M664 310l46 0 -5 -13 -46 0 6 13zm227 0l43 0 5 -13 -43 0 -5 13z"/>
  <path class="fil0" d="M658 296l46 0 -5 -14 -46 0 6 14zm238 0l43 0 5 -14 -43 0 -5 14z"/>
  <path class="fil0" d="M653 283l46 0 -5 -13 -46 0 6 13zm248 0l43 0 5 -13 -44 0 -5 13z"/>
  <path class="fil0" d="M647 269l46 0 -5 -13 -47 0 6 13zm259 0l44 0 5 -13 -44 0 -5 13z"/>
  <path class="fil0" d="M641 256l47 0 -5 -13 -47 0 6 13zm270 0l44 0 5 -13 -44 0 -5 13z"/>
  <path class="fil0" d="M636 243l47 0 -5 -13 -47 0 6 13zm281 0l44 0 5 -13 -44 0 -5 13z"/>
  <path class="fil0" d="M630 229l47 0 -5 -13 -47 0 6 13zm291 0l44 0 5 -13 -44 0 -5 13z"/>
  <path class="fil0" d="M624 216l47 0 -5 -13 -47 0 6 13zm302 0l44 0 5 -13 -45 0 -5 13z"/>
  <path class="fil0" d="M619 202l47 0 -5 -13 -48 0 6 13zm313 0l45 0 5 -13 -45 0 -5 13z"/>
  <path class="fil0" d="M613 189l48 0 -5 -13 -48 0 6 13zm324 0l45 0 5 -13 -45 0 -5 13z"/>
  <path class="fil0" d="M607 175l48 0 -5 -13 -48 0 6 13zm334 0l45 0 5 -13 -45 0 -5 13z"/>
  <path class="fil0" d="M602 162l48 0 -5 -13 -48 0 6 13zm345 0l45 0 5 -13 -45 0 -5 13z"/>
  <path class="fil0" d="M596 148l48 0 -5 -13 -48 0 6 13zm356 0l45 0 5 -13 -45 0 -5 13z"/>
  <path class="fil0" d="M590 135l48 0 -5 -13 -48 0 6 13zm366 0l45 0 5 -13 -46 0 -5 13z"/>
  <path class="fil0" d="M585 121l48 0 -5 -13 -49 0 6 13zm377 0l46 0 5 -13 -46 0 -5 13z"/>
  <path class="fil0" d="M579 108l49 0 -5 -13 -49 0 6 13zm388 0l46 0 5 -13 -46 0 -5 13z"/>
  <path class="fil0" d="M573 94l49 0 -5 -13 -49 0 6 13zm399 0l46 0 5 -13 -46 0 -5 13z"/>
  <path class="fil0" d="M568 81l49 0 -5 -13 -49 0 6 13zm409 0l46 0 5 -13 -46 0 -5 13z"/>
  <path class="fil0" d="M562 67l49 0 -5 -13 -49 0 6 13zm420 0l46 0 5 -13 -47 0 -5 13z"/>
  <path class="fil0" d="M556 54l49 0 -5 -13 -50 0 6 13zm431 0l47 0 5 -13 -47 0 -5 13z"/>
  <path class="fil0" d="M551 40l50 0 -5 -14 -50 0 6 14zm442 0l47 0 5 -14 -47 0 -5 14z"/>
  <path class="fil0" d="M545 27l50 0 -5 -13 -50 0 6 13zm452 0l47 0 5 -13 0 0 -47 0 -5 13z"/>
  <path class="fil0" d="M1125 271l424 0c0,-67 -20,-122 -61,-167 -41,-45 -90,-67 -149,-67 -61,0 -113,25 -154,75 -34,42 -54,95 -60,158zm464 124c-12,68 -40,120 -83,156 -43,36 -99,55 -167,55 -82,0 -145,-27 -190,-80 -45,-54 -67,-128 -67,-223 0,-89 24,-162 71,-218 48,-56 110,-84 187,-84 76,0 138,28 185,83 45,53 67,120 67,200l0 25 -469 0c0,77 19,140 57,188 38,48 91,72 158,72 55,0 100,-16 136,-48 35,-32 58,-74 67,-126l46 0z"/>
  <polygon class="fil0" points="1125,271 1125,271 1125,269 1125,269 "/>
  <path class="fil0" d="M1125 269l0 0c0,-5 1,-9 2,-13l-2 0 0 13zm424 -2l0 -11 0 0c0,4 0,7 0,11z"/>
  <path class="fil0" d="M1125 256l2 0c1,-5 1,-9 2,-13l-4 0 0 13zm423 0l0 0 0 -13 -1 0c0,4 1,9 1,13z"/>
  <path class="fil0" d="M1125 243l4 0c1,-5 2,-9 3,-13l-6 0 0 13zm422 0l1 0 0 -13 -3 0c1,4 1,9 2,13z"/>
  <path class="fil0" d="M1125 229l6 0c1,-5 2,-9 3,-13l-9 0 0 13zm421 0l3 0 0 -13 -5 0c1,4 2,9 2,13z"/>
  <path class="fil0" d="M1125 216l9 0c1,-5 2,-9 4,-13l-13 0 0 13zm418 0l5 0 0 -13 -8 0c1,4 2,9 3,13z"/>
  <path class="fil0" d="M1125 202l13 0c1,-5 3,-9 4,-13l-17 0 0 13zm415 0l8 0 0 -13 -12 0c1,4 3,9 4,13z"/>
  <path class="fil0" d="M1125 189l17 0c2,-5 3,-9 5,-13l-23 0 0 13zm412 0l12 0 0 -13 -17 0c2,4 3,9 5,13z"/>
  <path class="fil0" d="M1125 175l23 0c2,-5 4,-9 6,-13l-29 0 0 13zm407 0l17 0 0 -13 -22 0c2,4 4,9 6,13z"/>
  <path class="fil0" d="M1125 162l29 0c2,-5 4,-9 7,-13l-36 0 0 13zm401 0l22 0 0 -13 -29 0c2,4 5,9 7,13z"/>
  <path class="fil0" d="M1125 148l36 0c3,-5 5,-9 8,-13l-44 0 0 13zm394 0l29 0 0 -13 -37 0c3,4 6,9 8,13z"/>
  <path class="fil0" d="M1125 135l44 0c3,-5 6,-9 9,-13l-51 0 -2 3 0 10zm386 0l37 0 0 -13 -47 0c3,4 6,9 9,13z"/>
  <path class="fil0" d="M1126 121l51 0c2,-3 4,-6 7,-9 1,-2 3,-3 4,-5l-53 0c-3,4 -6,9 -9,13zm375 0l47 0 0 -8c-1,-2 -3,-4 -4,-6l-54 0c4,4 8,9 11,13z"/>
  <path class="fil0" d="M1135 108l53 0c4,-5 8,-9 12,-13l-56 0c-3,4 -7,9 -10,13zm355 0l54 0c-3,-5 -6,-9 -10,-13l-57 0c3,3 6,6 9,10 1,1 2,3 3,4z"/>
  <path class="fil0" d="M1145 94l56 0c5,-5 10,-9 15,-13l-59 0c-1,1 -2,2 -3,3 -3,3 -6,7 -8,10zm333 0l57 0c-3,-4 -6,-8 -9,-11l-2 -2 -61 0c5,4 10,9 15,13z"/>
  <path class="fil0" d="M1156 81l59 0c6,-5 12,-9 18,-13l-65 0c-4,4 -9,9 -13,13zm307 0l61 0c-4,-5 -8,-9 -13,-13l-67 0c6,4 13,9 19,13z"/>
  <path class="fil0" d="M1169 67l65 0c8,-5 16,-10 24,-13l-74 0c-5,4 -10,9 -15,13zm276 0l67 0c-5,-5 -10,-9 -15,-13l-77 0c9,4 17,8 25,13z"/>
  <path class="fil0" d="M1183 54l74 0c14,-6 28,-11 43,-13l-100 0c-6,4 -12,9 -18,13zm236 0l77 0c-6,-5 -12,-9 -18,-13l-103 0c15,3 30,7 43,13z"/>
  <path class="fil0" d="M1201 40l100 0c12,-2 25,-3 38,-3l-132 0c-2,1 -3,2 -5,3zm175 0l103 0c-2,-1 -3,-2 -5,-3l-136 0c13,0 26,1 38,3z"/>
  <path class="fil0" d="M1335 606l8 0c31,0 60,-5 86,-13l-178 0c26,8 54,12 85,13z"/>
  <path class="fil0" d="M1251 593l178 0c12,-4 23,-8 34,-13l-245 0c11,5 22,10 33,13z"/>
  <path class="fil0" d="M1217 579l245 0c8,-4 16,-9 23,-13l-109 0c-12,2 -24,3 -37,3 -13,0 -25,-1 -37,-3l-109 0c7,5 15,9 23,13z"/>
  <path class="fil0" d="M1194 566l109 0c-17,-3 -34,-7 -49,-13l-78 0c6,5 12,9 18,13zm182 0l109 0c6,-4 12,-9 18,-13l-78 0c-15,6 -31,11 -49,13z"/>
  <path class="fil0" d="M1177 552l78 0c-9,-4 -18,-8 -26,-13l-67 0c5,5 10,9 15,13zm249 0l78 0 2 -2c4,-4 9,-8 13,-12l-68 0c-8,5 -17,10 -26,13z"/>
  <path class="fil0" d="M1162 539l67 0c-6,-4 -13,-9 -19,-13l-60 0c4,5 8,9 12,13zm289 0l68 0c4,-4 8,-9 12,-13l-62 0c-6,5 -12,9 -18,13z"/>
  <path class="fil0" d="M1150 526l60 0c-5,-4 -10,-9 -15,-13l-56 0c3,4 7,9 10,13l0 0zm320 0l62 0c4,-4 7,-9 11,-13l-58 0c-3,3 -6,6 -9,8 -2,2 -4,3 -6,5z"/>
  <path class="fil0" d="M1139 512l56 0c-4,-4 -8,-9 -12,-13l-54 0c3,5 6,9 9,13zm345 0l58 0c3,-4 6,-9 9,-13l-55 0c-4,5 -8,9 -12,13z"/>
  <path class="fil0" d="M1130 499l54 0 -2 -2c-3,-4 -6,-7 -8,-11l-51 0c3,5 5,9 8,13zm366 0l55 0c3,-4 5,-9 8,-13l-52 0c-3,5 -7,9 -10,13z"/>
  <path class="fil0" d="M1122 485l51 0c-3,-4 -6,-9 -9,-13l-50 0c2,5 4,9 7,13zm384 0l52 0c2,-4 5,-9 7,-13l-50 0c-3,5 -6,9 -9,13z"/>
  <path class="fil0" d="M1115 472l50 0c-3,-4 -5,-9 -8,-13l-48 0c2,5 4,9 6,13zm400 0l50 0c2,-4 4,-9 6,-13l-49 0c-2,5 -5,9 -7,13z"/>
  <path class="fil0" d="M1109 458l48 0c-2,-4 -4,-9 -6,-13l-47 0c2,5 3,9 5,13zm413 0l49 0c2,-4 3,-9 5,-13l-48 0c-2,5 -4,9 -6,13z"/>
  <path class="fil0" d="M1104 445l47 0c-2,-4 -4,-9 -6,-13l-46 0c1,5 3,9 5,13zm424 0l48 0c1,-4 3,-9 4,-13l-47 0c-2,5 -3,9 -5,13z"/>
  <path class="fil0" d="M1099 431l46 0c-2,-4 -3,-9 -5,-13l-45 0c1,5 2,9 4,13zm434 0l47 0c1,-4 2,-9 4,-13l-46 0c-1,5 -3,9 -4,13z"/>
  <path class="fil0" d="M1096 418l45 0c-1,-4 -3,-9 -4,-13l-44 0c1,5 2,9 3,13zm442 0l46 0c1,-4 2,-9 3,-13l-46 0c-1,5 -2,9 -3,13z"/>
  <path class="fil0" d="M1092 404l44 0c-1,-4 -2,-9 -3,-13l-44 0c1,5 2,9 3,13zm448 0l46 0c1,-3 1,-7 2,-10l-46 0c-1,3 -1,7 -2,10z"/>
  <path class="fil0" d="M1090 391l44 0c-1,-4 -2,-9 -3,-13l-43 0c1,5 1,9 2,13z"/>
  <path class="fil0" d="M1087 377l43 0c-1,-4 -1,-9 -2,-13l-43 0c1,5 1,9 2,13z"/>
  <path class="fil0" d="M1085 364l43 0c-1,-4 -1,-9 -2,-13l-43 0c0,5 1,9 1,13z"/>
  <path class="fil0" d="M1084 350l43 0c0,-4 -1,-9 -1,-14l-43 0c0,5 1,9 1,14z"/>
  <path class="fil0" d="M1083 337l43 0c0,-4 -1,-9 -1,-13l-43 0c0,5 0,9 1,13z"/>
  <path class="fil0" d="M1082 323l43 0c0,-4 0,-9 0,-14l-43 0c0,5 0,9 0,14z"/>
  <polygon class="fil0" points="1082,310 1125,310 1125,308 1593,308 1593,296 1082,296 1082,297 1082,307 "/>
  <path class="fil0" d="M1082 296l511 0 0 -13 0 0 -511 0c0,4 0,9 0,14z"/>
  <path class="fil0" d="M1082 283l511 0c0,-5 0,-9 0,-13l-45 0 0 1 -424 0 0 -1 -42 0c0,4 -1,9 -1,13z"/>
  <path class="fil0" d="M1083 269l42 0c0,-5 1,-9 2,-13l-42 0c0,4 -1,9 -1,13zm465 0l45 0c0,-5 0,-9 -1,-13l-44 0c0,4 0,9 0,13z"/>
  <path class="fil0" d="M1084 256l42 0c1,-5 1,-9 2,-13l-43 0c-1,4 -1,9 -2,13zm464 0l44 0c0,-5 -1,-9 -1,-13l-44 0c0,4 1,9 1,13z"/>
  <path class="fil0" d="M1086 243l43 0c1,-5 2,-9 3,-13l-43 0c-1,4 -1,9 -2,13zm461 0l44 0c0,-5 -1,-9 -2,-13l-44 0c1,4 1,9 2,13z"/>
  <path class="fil0" d="M1088 229l43 0c1,-5 2,-9 3,-13l-44 0c-1,4 -2,9 -3,13zm458 0l44 0c-1,-5 -1,-9 -2,-13l-44 0c1,4 2,9 2,13z"/>
  <path class="fil0" d="M1090 216l44 0c1,-5 2,-9 4,-13l-44 0c-1,4 -2,9 -3,13zm453 0l44 0c-1,-5 -2,-9 -3,-13l-44 0c1,4 2,9 3,13z"/>
  <path class="fil0" d="M1093 202l44 0c1,-5 3,-9 4,-13l-45 0c-1,4 -3,9 -4,13zm447 0l44 0c-1,-5 -2,-9 -3,-13l-45 0c1,4 3,9 4,13z"/>
  <path class="fil0" d="M1097 189l45 0c2,-5 3,-9 5,-13l-46 0c-2,4 -3,9 -4,13zm439 0l45 0c-1,-5 -3,-9 -4,-13l-46 0c2,4 3,9 5,13z"/>
  <path class="fil0" d="M1101 175l46 0c2,-5 4,-9 6,-13l-47 0c-2,4 -3,9 -5,13zm430 0l46 0c-1,-5 -3,-9 -5,-13l-47 0c2,4 4,9 6,13z"/>
  <path class="fil0" d="M1107 162l47 0c2,-5 4,-9 7,-13l-48 0c-2,4 -4,9 -6,13zm419 0l47 0c-2,-5 -4,-9 -6,-13l-48 0c2,4 5,9 7,13z"/>
  <path class="fil0" d="M1112 148l48 0c3,-5 5,-9 8,-13l-49 0c-2,4 -5,9 -7,13zm407 0l48 0c-2,-5 -4,-9 -6,-13l-49 0c3,4 6,9 8,13z"/>
  <path class="fil0" d="M1119 135l49 0c3,-5 6,-9 9,-13l-51 0c-3,4 -5,9 -8,13zm392 0l49 0c-2,-5 -5,-9 -7,-13l-51 0c3,4 6,9 9,13z"/>
  <path class="fil0" d="M1126 121l51 0c2,-3 4,-6 7,-9 1,-2 3,-3 4,-5l-53 0c-3,4 -6,9 -9,13zm375 0l51 0c-3,-5 -5,-9 -8,-13l-54 0c4,4 8,9 11,13z"/>
  <path class="fil0" d="M1135 108l53 0c4,-5 8,-9 12,-13l-56 0c-3,4 -7,9 -10,13zm355 0l54 0c-3,-5 -6,-9 -10,-13l-57 0c3,3 6,6 9,10 1,1 2,3 3,4z"/>
  <path class="fil0" d="M1145 94l56 0c5,-5 10,-9 15,-13l-59 0c-1,1 -2,2 -3,3 -3,3 -6,7 -8,10zm333 0l57 0c-3,-4 -6,-8 -9,-11l-2 -2 -61 0c5,4 10,9 15,13z"/>
  <path class="fil0" d="M1156 81l59 0c6,-5 12,-9 18,-13l-65 0c-4,4 -9,9 -13,13zm307 0l61 0c-4,-5 -8,-9 -13,-13l-67 0c6,4 13,9 19,13z"/>
  <path class="fil0" d="M1169 67l65 0c8,-5 16,-10 24,-13l-74 0c-5,4 -10,9 -15,13zm276 0l67 0c-5,-5 -10,-9 -15,-13l-77 0c9,4 17,8 25,13z"/>
  <path class="fil0" d="M1183 54l74 0c14,-6 28,-11 43,-13l-100 0c-6,4 -12,9 -18,13zm236 0l77 0c-6,-5 -12,-9 -18,-13l-103 0c15,3 30,7 43,13z"/>
  <path class="fil0" d="M1201 40l100 0c12,-2 25,-3 38,-3 13,0 26,1 38,3l103 0c-7,-5 -15,-9 -22,-14l-233 0c-8,4 -15,9 -22,14z"/>
  <path class="fil0" d="M1223 27l233 0c-10,-5 -20,-10 -31,-13l-171 0c-11,4 -21,8 -31,13z"/>
  <path class="fil0" d="M1255 13l171 0c-26,-9 -54,-13 -85,-13 -31,0 -60,5 -86,13z"/>
  <path class="fil1" d="M566 1444l0 22 20 0 0 11 -20 0 0 42c0,10 3,15 11,15 4,0 6,0 8,-1l1 10c-3,1 -7,2 -12,2 -7,0 -12,-2 -15,-6 -4,-4 -5,-11 -5,-20l0 -42 -12 0 0 -11 12 0 0 -18 14 -4z"/>
  <path class="fil1" d="M602 1430l14 0 0 48 0 0c2,-4 6,-7 10,-10 4,-2 9,-4 14,-4 10,0 27,6 27,33l0 46 -14 0 0 -44c0,-12 -5,-23 -18,-23 -9,0 -16,6 -19,14 -1,2 -1,4 -1,7l0 46 -14 0 0 -113z"/>
  <path class="fil1" d="M739 1497c0,-9 -4,-23 -19,-23 -14,0 -20,13 -21,23l41 0zm-41 10c0,19 12,27 26,27 10,0 16,-2 21,-4l2 10c-5,2 -13,5 -26,5 -24,0 -38,-16 -38,-39 0,-23 14,-42 36,-42 25,0 32,22 32,36 0,3 0,5 0,7l-54 0z"/>
  <path class="fil1" d="M817 1512c0,2 0,4 1,6 3,10 11,16 21,16 15,0 23,-12 23,-30 0,-15 -8,-29 -23,-29 -10,0 -18,7 -21,17 0,2 -1,4 -1,6l0 13zm-14 -21c0,-10 0,-18 -1,-25l13 0 1 13 0 0c6,-9 15,-15 27,-15 19,0 33,16 33,39 0,28 -17,41 -35,41 -10,0 -19,-4 -24,-12l0 0 0 42 -14 0 0 -83z"/>
  <path class="fil1" d="M943 1497c0,-9 -4,-23 -19,-23 -14,0 -20,13 -21,23l41 0zm-41 10c0,19 12,27 26,27 10,0 16,-2 21,-4l2 10c-5,2 -13,5 -26,5 -24,0 -38,-16 -38,-39 0,-23 14,-42 36,-42 25,0 32,22 32,36 0,3 0,5 0,7l-54 0z"/>
  <path class="fil1" d="M974 1490c0,-9 0,-17 -1,-24l12 0 0 15 1 0c4,-10 12,-17 21,-17 2,0 3,0 4,0l0 13c-1,0 -3,0 -5,0 -10,0 -17,7 -19,18 0,2 -1,4 -1,7l0 41 -14 0 0 -53z"/>
  <path class="fil1" d="M1032 1543l0 -66 -11 0 0 -11 11 0 0 -4c0,-11 2,-21 9,-27 5,-5 12,-7 19,-7 5,0 9,1 12,2l-2 11c-2,-1 -5,-2 -9,-2 -12,0 -15,11 -15,22l0 4 19 0 0 11 -19 0 0 66 -14 0z"/>
  <path class="fil1" d="M1124 1497c0,-9 -4,-23 -19,-23 -14,0 -20,13 -21,23l41 0zm-41 10c0,19 12,27 26,27 10,0 16,-2 21,-4l2 10c-5,2 -13,5 -26,5 -24,0 -38,-16 -38,-39 0,-23 14,-42 36,-42 25,0 32,22 32,36 0,3 0,5 0,7l-54 0z"/>
  <path class="fil1" d="M1210 1541c-4,2 -12,4 -22,4 -23,0 -38,-16 -38,-39 0,-24 16,-41 41,-41 8,0 16,2 19,4l-3 11c-3,-2 -9,-4 -16,-4 -18,0 -27,13 -27,29 0,18 11,29 27,29 8,0 13,-2 17,-4l2 11z"/>
  <path class="fil1" d="M1245 1444l0 22 20 0 0 11 -20 0 0 42c0,10 3,15 11,15 4,0 6,0 8,-1l1 10c-3,1 -7,2 -12,2 -7,0 -12,-2 -15,-6 -4,-4 -5,-11 -5,-20l0 -42 -12 0 0 -11 12 0 0 -18 14 -4z"/>
  <path class="fil1" d="M1456 1466l15 43c3,7 5,13 6,20l0 0c2,-6 4,-13 7,-20l15 -43 15 0 -30 77 -13 0 -29 -77 15 0z"/>
  <path class="fil1" d="M1527 1543l0 -77 14 0 0 77 -14 0zm16 -99c0,5 -3,9 -9,9 -5,0 -8,-4 -8,-9 0,-5 4,-9 9,-9 5,0 9,4 9,9z"/>
  <path class="fil1" d="M1563 1529c4,3 11,6 18,6 10,0 15,-5 15,-11 0,-7 -4,-10 -14,-14 -14,-5 -20,-13 -20,-22 0,-12 10,-23 27,-23 8,0 15,2 19,5l-4 10c-3,-2 -9,-4 -16,-4 -8,0 -13,5 -13,11 0,6 5,9 15,13 13,5 20,12 20,23 0,14 -11,23 -29,23 -8,0 -16,-2 -22,-5l4 -11z"/>
  <path class="fil1" d="M1628 1543l0 -77 14 0 0 77 -14 0zm16 -99c0,5 -3,9 -9,9 -5,0 -8,-4 -8,-9 0,-5 4,-9 9,-9 5,0 9,4 9,9z"/>
  <path class="fil1" d="M1673 1505c0,17 10,30 23,30 13,0 23,-13 23,-30 0,-13 -7,-30 -23,-30 -17,0 -24,15 -24,30zm61 -1c0,28 -20,41 -38,41 -21,0 -37,-15 -37,-40 0,-26 17,-41 38,-41 22,0 37,16 37,40z"/>
  <path class="fil1" d="M1752 1487c0,-8 0,-14 -1,-21l12 0 1 13 0 0c4,-7 13,-14 25,-14 11,0 27,6 27,33l0 46 -14 0 0 -44c0,-12 -5,-23 -18,-23 -9,0 -16,7 -19,14 -1,2 -1,4 -1,7l0 46 -14 0 0 -56z"/>
  <path class="fil1" d="M1872 1529c4,3 11,6 18,6 10,0 15,-5 15,-11 0,-7 -4,-10 -14,-14 -14,-5 -20,-13 -20,-22 0,-12 10,-23 27,-23 8,0 15,2 19,5l-4 10c-3,-2 -9,-4 -16,-4 -8,0 -13,5 -13,11 0,6 5,9 15,13 13,5 20,12 20,23 0,14 -11,23 -29,23 -8,0 -16,-2 -22,-5l4 -11z"/>
  <path class="fil1" d="M1946 1505c0,17 10,30 23,30 13,0 23,-13 23,-30 0,-13 -7,-30 -23,-30 -17,0 -24,15 -24,30zm61 -1c0,28 -20,41 -38,41 -21,0 -37,-15 -37,-40 0,-26 17,-41 38,-41 22,0 37,16 37,40z"/>
  <polygon class="fil1" points="2025,1543 2039,1543 2039,1430 2025,1430 "/>
  <path class="fil1" d="M2127 1522c0,8 0,15 1,21l-12 0 -1 -13 0 0c-4,6 -12,14 -25,14 -12,0 -27,-7 -27,-34l0 -45 14 0 0 43c0,15 4,25 17,25 9,0 16,-7 18,-13 1,-2 1,-5 1,-7l0 -47 14 0 0 56z"/>
  <path class="fil1" d="M2167 1444l0 22 20 0 0 11 -20 0 0 42c0,10 3,15 10,15 4,0 6,0 8,-1l1 10c-3,1 -7,2 -12,2 -7,0 -12,-2 -15,-6 -4,-4 -5,-11 -5,-20l0 -42 -12 0 0 -11 12 0 0 -18 14 -4z"/>
  <path class="fil1" d="M2203 1543l0 -77 14 0 0 77 -14 0zm16 -99c0,5 -3,9 -9,9 -5,0 -8,-4 -8,-9 0,-5 4,-9 9,-9 5,0 9,4 9,9z"/>
  <path class="fil1" d="M2249 1505c0,17 10,30 23,30 13,0 23,-13 23,-30 0,-13 -7,-30 -23,-30 -17,0 -24,15 -24,30zm61 -1c0,28 -20,41 -38,41 -21,0 -37,-15 -37,-40 0,-26 17,-41 38,-41 22,0 37,16 37,40z"/>
  <path class="fil1" d="M2327 1487c0,-8 0,-14 -1,-21l12 0 1 13 0 0c4,-7 13,-14 25,-14 11,0 27,6 27,33l0 46 -14 0 0 -44c0,-12 -5,-23 -18,-23 -9,0 -16,7 -19,14 -1,2 -1,4 -1,7l0 46 -14 0 0 -56z"/>
 </g>
</svg>
